<svg width="1435" height="365" viewBox="0 0 1435 365" fill="none" xmlns="http://www.w3.org/2000/svg">
<path d="M245.799 132.119C249.659 135.119 252.079 139.589 252.469 144.419L253.729 160.319C254.179 166.009 252.019 171.549 247.849 175.389L224.299 197.069C222.169 199.029 220.309 201.249 218.739 203.669L184.109 257.359C178.039 266.779 169.669 274.489 159.769 279.789L116.309 303.079C108.629 307.199 99.6185 300.009 101.929 291.609L114.769 244.909C117.729 234.139 123.349 224.319 131.129 216.329L175.079 171.169C177.619 168.559 179.729 165.549 181.319 162.269L194.729 134.619C197.329 129.269 202.339 125.509 208.239 124.499L223.469 121.879C228.249 121.059 233.179 122.299 237.039 125.299L245.799 132.109V132.119ZM211.189 113.289C212.749 114.509 212.229 116.959 210.319 117.399L204.459 118.709C199.099 119.909 194.539 123.319 191.899 128.099L175.169 158.409C171.429 165.179 164.909 169.969 157.289 171.529L124.429 178.279C87.0385 185.959 47.8985 176.739 17.4785 153.099L6.25853 144.379C-5.42147 135.299 0.258532 116.829 14.9385 116.169L195.509 108.019C200.939 107.769 206.309 109.489 210.629 112.849L211.189 113.279V113.289ZM264.539 154.759C268.859 158.119 271.849 162.899 272.949 168.219L309.629 345.209C312.609 359.589 296.109 369.659 284.429 360.579L273.209 351.859C242.789 328.219 224.199 292.559 222.409 254.429L220.839 220.919C220.479 213.139 223.499 205.639 229.139 200.349L254.379 176.659C258.359 172.919 260.539 167.659 260.379 162.169L260.209 156.169C260.149 154.209 262.409 153.089 263.969 154.309L264.529 154.739L264.539 154.759ZM392.199 209.869C397.409 213.959 397.429 221.789 392.249 225.749C379.039 235.839 360.499 235.569 347.269 225.099L304.109 190.929C302.899 189.969 301.779 188.909 300.769 187.739L249.209 128.369C247.359 126.239 248.049 122.979 250.579 121.819L253.579 120.459C255.829 119.429 258.389 119.209 260.809 119.829L280.349 124.829C283.889 125.739 287.199 127.369 290.079 129.629L392.209 209.859L392.199 209.869ZM228.629 81.8486C231.479 84.0686 233.849 86.8486 235.579 90.0086L245.369 107.929C246.519 110.029 246.949 112.429 246.599 114.769L246.209 117.409C245.799 120.199 242.779 121.749 240.219 120.489L169.829 85.8786C168.319 85.1286 166.879 84.2386 165.549 83.1986L122.149 49.4686C108.859 39.1386 104.119 21.2786 110.619 6.03859C113.199 -0.0114093 120.859 -1.92141 126.139 2.17859L228.629 81.8386V81.8486ZM263.259 46.6786C272.249 51.7786 275.759 57.8786 275.629 63.8586C275.519 68.5386 273.169 72.5486 270.709 75.2486C273.229 76.6886 275.929 78.4986 278.809 80.7386C281.519 82.8486 283.829 84.8986 285.769 86.8786C287.799 83.9386 291.009 80.8886 295.339 79.6786C301.099 78.0686 307.879 79.9686 315.039 87.4186C316.089 88.5086 316.069 90.2386 314.989 91.2686C313.909 92.2986 312.179 92.2486 311.129 91.1586C304.879 84.6586 300.109 84.0286 296.899 84.9286C293.599 85.8486 290.999 88.6186 289.559 91.2086C297.559 101.639 295.639 109.839 292.619 114.879C290.159 118.979 284.969 119.839 280.269 118.669L264.569 114.759C258.079 113.139 252.549 108.839 249.379 102.949L241.709 88.6986C239.409 84.4286 238.969 79.1886 242.339 75.7986C246.419 71.6886 253.739 67.8586 265.499 72.6986C267.789 70.6886 270.089 67.2986 270.169 63.6686C270.249 60.3386 268.459 55.8686 260.619 51.4186C259.299 50.6686 258.819 49.0086 259.559 47.7086C260.289 46.4086 261.949 45.9586 263.269 46.7086L263.259 46.6786Z" fill="#9400DE"/>
<path d="M471.688 327.349V47.7286H654.808V95.9786H530.208V170.969H643.958V217.279H530.208V327.349H471.688Z" fill="#9400DE"/>
<path d="M683.479 67.4886C683.479 51.0186 696.659 38.2286 713.709 38.2286C730.759 38.2286 743.939 51.0186 743.939 67.4886C743.939 83.9586 730.759 96.7486 713.709 96.7486C696.659 96.7486 683.479 83.7686 683.479 67.4886ZM685.419 119.619H741.999V327.349H685.419V119.619Z" fill="#9400DE"/>
<path d="M779.598 119.619H834.248V157.019H835.408C842.768 130.669 860.408 116.329 884.818 116.329C891.408 116.329 897.028 117.299 900.898 118.459V168.259C896.248 166.319 888.498 164.969 880.358 164.969C852.458 164.969 836.178 182.019 836.178 211.279V327.349H779.598V119.619Z" fill="#9400DE"/>
<path d="M1106.69 263.789C1100.49 304.479 1063.28 331.809 1011.93 331.809C947.978 331.809 909.618 290.919 909.618 224.459C909.618 157.999 948.378 115.169 1009.8 115.169C1071.22 115.169 1108.43 156.059 1108.43 219.229V236.479H965.228V239.969C965.228 269.619 984.028 289.959 1012.9 289.959C1033.63 289.959 1049.52 279.689 1054.76 263.799H1106.69V263.789ZM965.818 201.779H1053.99C1052.83 175.229 1035.58 157.019 1010.39 157.019C985.198 157.019 967.758 175.819 965.818 201.779Z" fill="#9400DE"/>
<path d="M1152.62 162.249H1124.33V120.589H1152.62V104.889C1152.62 64.1986 1171.8 45.2086 1221.02 45.2086C1231.48 45.2086 1243.3 46.3686 1249.89 47.7286V85.1286C1245.82 84.3486 1240.2 83.9686 1234.58 83.9686C1215.98 83.9686 1207.84 92.1086 1207.84 106.839V120.599H1249.11V162.259H1209.19V327.359H1152.61V162.259L1152.62 162.249Z" fill="#9400DE"/>
<path d="M1280.12 47.7286H1336.7V327.349H1280.12V47.7286Z" fill="#9400DE"/>
<path d="M1373.91 67.4886C1373.91 51.0186 1387.09 38.2286 1404.14 38.2286C1421.19 38.2286 1434.37 51.0186 1434.37 67.4886C1434.37 83.9586 1421.19 96.7486 1404.14 96.7486C1387.09 96.7486 1373.91 83.7686 1373.91 67.4886ZM1375.85 119.619H1432.43V327.349H1375.85V119.619Z" fill="#9400DE"/>
</svg>
